<?xml version="1.0" encoding="UTF-8" standalone="no"?>
<!DOCTYPE svg PUBLIC "-//W3C//DTD SVG 1.1//EN"
 "http://www.w3.org/Graphics/SVG/1.1/DTD/svg11.dtd">
<!-- Generated by graphviz version 15.1.1 (20260805.0921)
 -->
<!-- Title: system&#45;architecture Pages: 1 -->
<svg width="1669pt" height="1500pt"
 viewBox="0.00 0.00 1669.00 1500.00" xmlns="http://www.w3.org/2000/svg" xmlns:xlink="http://www.w3.org/1999/xlink">
<g id="graph0" class="graph" transform="scale(1.99456 1.99456) rotate(0) translate(50.4 701.64)">
<title>system&#45;architecture</title>
<text xml:space="preserve" text-anchor="start" x="36.5" y="-635.89" font-family="Helvetica,sans-Serif" font-weight="bold" font-size="13.00" fill="#1e293b">Pasanaku digital &#45; System Architecture</text>
<text xml:space="preserve" text-anchor="start" x="8" y="-626.69" font-family="Helvetica,sans-Serif" font-size="9.00" fill="#475569">Direct USDC pay to the member whose turn it is · server verifies on Horizon</text>
<g id="clust1" class="cluster">
<title>cluster_browser</title>
<path fill="none" stroke="#3b82f6" stroke-width="2.5" d="M20,-374.06C20,-374.06 478,-374.06 478,-374.06 484,-374.06 490,-380.06 490,-386.06 490,-386.06 490,-601.25 490,-601.25 490,-607.25 484,-613.25 478,-613.25 478,-613.25 20,-613.25 20,-613.25 14,-613.25 8,-607.25 8,-601.25 8,-601.25 8,-386.06 8,-386.06 8,-380.06 14,-374.06 20,-374.06"/>
<text xml:space="preserve" text-anchor="start" x="16" y="-598.85" font-family="Helvetica,sans-Serif" font-weight="bold" font-size="12.00" fill="#3b82f6">Browser &#160;&#45; &#160;Pollar session</text>
</g>
<g id="clust2" class="cluster">
<title>cluster_api</title>
<path fill="none" stroke="#16a34a" stroke-width="2.5" d="M510,-132.62C510,-132.62 716,-132.62 716,-132.62 722,-132.62 728,-138.62 728,-144.62 728,-144.62 728,-466.53 728,-466.53 728,-472.53 722,-478.53 716,-478.53 716,-478.53 510,-478.53 510,-478.53 504,-478.53 498,-472.53 498,-466.53 498,-466.53 498,-144.62 498,-144.62 498,-138.62 504,-132.62 510,-132.62"/>
<text xml:space="preserve" text-anchor="start" x="506" y="-464.13" font-family="Helvetica,sans-Serif" font-weight="bold" font-size="12.00" fill="#16a34a">Next.js app &#160;&#45; &#160;apps/pasanaku&#45;circles</text>
</g>
<g id="clust3" class="cluster">
<title>cluster_net</title>
<path fill="none" stroke="#9333ea" stroke-width="2.5" d="M306,-8C306,-8 478,-8 478,-8 484,-8 490,-14 490,-20 490,-20 490,-225.08 490,-225.08 490,-231.08 484,-237.08 478,-237.08 478,-237.08 306,-237.08 306,-237.08 300,-237.08 294,-231.08 294,-225.08 294,-225.08 294,-20 294,-20 294,-14 300,-8 306,-8"/>
<text xml:space="preserve" text-anchor="start" x="302" y="-222.68" font-family="Helvetica,sans-Serif" font-weight="bold" font-size="12.00" fill="#9333ea">Stellar testnet</text>
</g>
<!-- ui -->
<g id="node1" class="node">
<title>ui</title>
<path fill="#eff6ff" stroke="#3b82f6" stroke-width="1.6" d="M224.47,-574.5C224.47,-574.5 37.54,-574.5 37.54,-574.5 31.54,-574.5 25.53,-568.5 25.53,-562.5 25.53,-562.5 25.53,-538.77 25.53,-538.77 25.53,-532.77 31.53,-526.77 37.53,-526.77 37.53,-526.77 224.47,-526.77 224.47,-526.77 230.47,-526.77 236.47,-532.77 236.47,-538.77 236.47,-538.77 236.47,-562.5 236.47,-562.5 236.47,-568.5 230.47,-574.5 224.47,-574.5"/>
<text xml:space="preserve" text-anchor="start" x="108.5" y="-555.68" font-family="Helvetica,sans-Serif" font-weight="bold" font-size="11.00" fill="#1e293b">Circle UI</text>
<text xml:space="preserve" text-anchor="start" x="70.62" y="-546.58" font-family="Helvetica,sans-Serif" font-size="9.00" fill="#475569">Create · join · dashboard · QR</text>
<text xml:space="preserve" text-anchor="start" x="41.38" y="-537.58" font-family="Helvetica,sans-Serif" font-size="9.00" fill="#475569">Regional name: pasanaku / tanda / pandero</text>
</g>
<!-- sdk -->
<g id="node3" class="node">
<title>sdk</title>
<path fill="#eff6ff" stroke="#3b82f6" stroke-width="1.6" d="M338.47,-439.78C338.47,-439.78 163.53,-439.78 163.53,-439.78 157.53,-439.78 151.53,-433.78 151.53,-427.78 151.53,-427.78 151.53,-404.06 151.53,-404.06 151.53,-398.06 157.53,-392.06 163.53,-392.06 163.53,-392.06 338.47,-392.06 338.47,-392.06 344.47,-392.06 350.47,-398.06 350.47,-404.06 350.47,-404.06 350.47,-427.78 350.47,-427.78 350.47,-433.78 344.47,-439.78 338.47,-439.78"/>
<text xml:space="preserve" text-anchor="start" x="222.12" y="-420.97" font-family="Helvetica,sans-Serif" font-weight="bold" font-size="11.00" fill="#1e293b">Pollar SDK</text>
<text xml:space="preserve" text-anchor="start" x="208.25" y="-411.87" font-family="Helvetica,sans-Serif" font-size="9.00" fill="#475569">@pollar/react ^0.11.2</text>
<text xml:space="preserve" text-anchor="start" x="167.38" y="-402.87" font-family="Helvetica,sans-Serif" font-size="9.00" fill="#475569">Auth · balance · one account across apps</text>
</g>
<!-- ui&#45;&gt;sdk -->
<g id="edge1" class="edge">
<title>ui&#45;&gt;sdk</title>
<path fill="none" stroke="#94a3b8" stroke-width="1.4" d="M152.18,-526.21C171.76,-504.55 201.02,-472.19 222.62,-448.3"/>
<polygon fill="#94a3b8" stroke="#94a3b8" stroke-width="1.4" points="224.72,-450.42 228.21,-442.12 220.3,-446.43 224.72,-450.42"/>
<text xml:space="preserve" text-anchor="middle" x="218.9" y="-488.28" font-family="Helvetica,sans-Serif" font-size="10.00" fill="#475569">login / balance</text>
</g>
<!-- routes -->
<g id="node4" class="node">
<title>routes</title>
<path fill="#f0fdf4" stroke="#16a34a" stroke-width="1.6" d="M667.84,-439.78C667.84,-439.78 528.16,-439.78 528.16,-439.78 522.16,-439.78 516.16,-433.78 516.16,-427.78 516.16,-427.78 516.16,-404.06 516.16,-404.06 516.16,-398.06 522.16,-392.06 528.16,-392.06 528.16,-392.06 667.84,-392.06 667.84,-392.06 673.84,-392.06 679.84,-398.06 679.84,-404.06 679.84,-404.06 679.84,-427.78 679.84,-427.78 679.84,-433.78 673.84,-439.78 667.84,-439.78"/>
<text xml:space="preserve" text-anchor="start" x="557.88" y="-420.97" font-family="Helvetica,sans-Serif" font-weight="bold" font-size="11.00" fill="#1e293b">Route handlers</text>
<text xml:space="preserve" text-anchor="start" x="532" y="-411.87" font-family="Helvetica,sans-Serif" font-size="9.00" fill="#475569">POST /circles · /join · /pay · /turns</text>
<text xml:space="preserve" text-anchor="start" x="538.38" y="-402.87" font-family="Helvetica,sans-Serif" font-size="9.00" fill="#475569">Cookie admin per circle code</text>
</g>
<!-- ui&#45;&gt;routes -->
<g id="edge3" class="edge">
<title>ui&#45;&gt;routes</title>
<path fill="none" stroke="#94a3b8" stroke-width="1.4" d="M237.17,-530.11C286.48,-520.78 345.83,-509.18 399,-497.78 420.32,-493.2 425.34,-490.65 446.75,-486.53 470.25,-482 477.56,-486.85 500,-478.53 520.86,-470.79 542,-458.22 559.29,-446.45"/>
<polygon fill="#94a3b8" stroke="#94a3b8" stroke-width="1.4" points="560.95,-448.92 566.21,-441.61 557.54,-444.04 560.95,-448.92"/>
<text xml:space="preserve" text-anchor="middle" x="485.38" y="-488.28" font-family="Helvetica,sans-Serif" font-size="10.00" fill="#475569">create join shuffle</text>
</g>
<!-- pay -->
<g id="node2" class="node">
<title>pay</title>
<path fill="#eff6ff" stroke="#3b82f6" stroke-width="2.5" d="M459.97,-574.5C459.97,-574.5 288.03,-574.5 288.03,-574.5 282.03,-574.5 276.03,-568.5 276.03,-562.5 276.03,-562.5 276.03,-538.77 276.03,-538.77 276.03,-532.77 282.03,-526.77 288.03,-526.77 288.03,-526.77 459.97,-526.77 459.97,-526.77 465.97,-526.77 471.97,-532.77 471.97,-538.77 471.97,-538.77 471.97,-562.5 471.97,-562.5 471.97,-568.5 465.97,-574.5 459.97,-574.5"/>
<text xml:space="preserve" text-anchor="start" x="327.88" y="-555.68" font-family="Helvetica,sans-Serif" font-weight="bold" font-size="11.00" fill="#1e293b">ContributeButton</text>
<text xml:space="preserve" text-anchor="start" x="317.75" y="-546.58" font-family="Helvetica,sans-Serif" font-size="9.00" fill="#475569">runTx(&#39;payment&#39;) + memo id</text>
<text xml:space="preserve" text-anchor="start" x="291.88" y="-537.58" font-family="Helvetica,sans-Serif" font-size="9.00" fill="#475569">Waits for USDC · never falls back to XLM</text>
</g>
<!-- pay&#45;&gt;sdk -->
<g id="edge2" class="edge">
<title>pay&#45;&gt;sdk</title>
<path fill="none" stroke="#94a3b8" stroke-width="1.4" d="M351.73,-525.6C331.57,-503.86 301.78,-471.71 279.82,-448.01"/>
<polygon fill="#94a3b8" stroke="#94a3b8" stroke-width="1.4" points="282.1,-446.09 274.14,-441.88 277.73,-450.14 282.1,-446.09"/>
<text xml:space="preserve" text-anchor="middle" x="356.14" y="-488.28" font-family="Helvetica,sans-Serif" font-size="10.00" fill="#475569">runTx payment</text>
</g>
<!-- pay&#45;&gt;routes -->
<g id="edge4" class="edge">
<title>pay&#45;&gt;routes</title>
<path fill="none" stroke="#94a3b8" stroke-width="2" d="M473.04,-527.56C494.27,-520.16 515.78,-510.44 534,-497.78 552.07,-485.22 567.53,-466.09 578.74,-449.58"/>
<polygon fill="#94a3b8" stroke="#94a3b8" stroke-width="2" points="581.02,-451.52 583.17,-442.78 576.04,-448.27 581.02,-451.52"/>
<text xml:space="preserve" text-anchor="middle" x="590.54" y="-488.28" font-family="Helvetica,sans-Serif" font-size="10.00" fill="#475569">POST hash + payer</text>
</g>
<!-- ledger -->
<g id="node8" class="node">
<title>ledger</title>
<path fill="#faf5ff" stroke="#9333ea" stroke-width="2" d="M455.47,-85.65C455.47,-88.94 424.33,-91.61 386,-91.61 347.67,-91.61 316.53,-88.94 316.53,-85.65 316.53,-85.65 316.53,-31.96 316.53,-31.96 316.53,-28.67 347.67,-26 386,-26 424.33,-26 455.47,-28.67 455.47,-31.96 455.47,-31.96 455.47,-85.65 455.47,-85.65"/>
<path fill="none" stroke="#9333ea" stroke-width="2" d="M455.47,-85.65C455.47,-82.36 424.33,-79.68 386,-79.68 347.67,-79.68 316.53,-82.36 316.53,-85.65"/>
<text xml:space="preserve" text-anchor="start" x="351.12" y="-63.86" font-family="Helvetica,sans-Serif" font-weight="bold" font-size="11.00" fill="#1e293b">Stellar ledger</text>
<text xml:space="preserve" text-anchor="start" x="332.38" y="-54.76" font-family="Helvetica,sans-Serif" font-size="9.00" fill="#475569">USDC payment + XLM fee</text>
<text xml:space="preserve" text-anchor="start" x="345.88" y="-45.76" font-family="Helvetica,sans-Serif" font-size="9.00" fill="#475569">Circle testnet issuer</text>
</g>
<!-- sdk&#45;&gt;ledger -->
<g id="edge8" class="edge">
<title>sdk&#45;&gt;ledger</title>
<path fill="none" stroke="#94a3b8" stroke-width="1.4" d="M248.78,-391.44C245.1,-340.49 242.47,-217.53 292,-132.62 299.85,-119.16 311.24,-107.31 323.4,-97.29"/>
<polygon fill="#94a3b8" stroke="#94a3b8" stroke-width="1.4" points="324.95,-99.85 329.81,-92.27 321.28,-95.17 324.95,-99.85"/>
<text xml:space="preserve" text-anchor="middle" x="274.26" y="-246.83" font-family="Helvetica,sans-Serif" font-size="10.00" fill="#475569">submit tx</text>
</g>
<!-- verify -->
<g id="node5" class="node">
<title>verify</title>
<path fill="#f0fdf4" stroke="#16a34a" stroke-width="2.5" d="M697.84,-333.06C697.84,-333.06 528.16,-333.06 528.16,-333.06 522.16,-333.06 516.16,-327.06 516.16,-321.06 516.16,-321.06 516.16,-297.33 516.16,-297.33 516.16,-291.33 522.16,-285.33 528.16,-285.33 528.16,-285.33 697.84,-285.33 697.84,-285.33 703.84,-285.33 709.84,-291.33 709.84,-297.33 709.84,-297.33 709.84,-321.06 709.84,-321.06 709.84,-327.06 703.84,-333.06 697.84,-333.06"/>
<text xml:space="preserve" text-anchor="start" x="566.12" y="-314.25" font-family="Helvetica,sans-Serif" font-weight="bold" font-size="11.00" fill="#1e293b">confirmPayment()</text>
<text xml:space="preserve" text-anchor="start" x="576.25" y="-305.14" font-family="Helvetica,sans-Serif" font-size="9.00" fill="#475569">16 on&#45;chain gates</text>
<text xml:space="preserve" text-anchor="start" x="532" y="-296.14" font-family="Helvetica,sans-Serif" font-size="9.00" fill="#475569">from · memo · USDC issuer · no self&#45;pay</text>
</g>
<!-- routes&#45;&gt;verify -->
<g id="edge5" class="edge">
<title>routes&#45;&gt;verify</title>
<path fill="none" stroke="#94a3b8" stroke-width="1.4" d="M601.37,-391.41C603.36,-377.5 605.92,-359.63 608.13,-344.2"/>
<polygon fill="#94a3b8" stroke="#94a3b8" stroke-width="1.4" points="611.03,-344.91 609.29,-336.08 605.14,-344.07 611.03,-344.91"/>
</g>
<!-- db -->
<g id="node6" class="node">
<title>db</title>
<path fill="#f0fdf4" stroke="#16a34a" stroke-width="1.6" d="M694.84,-198.33C694.84,-198.33 531.16,-198.33 531.16,-198.33 525.16,-198.33 519.16,-192.33 519.16,-186.33 519.16,-186.33 519.16,-162.62 519.16,-162.62 519.16,-156.62 525.16,-150.62 531.16,-150.62 531.16,-150.62 694.84,-150.62 694.84,-150.62 700.84,-150.62 706.84,-156.62 706.84,-162.62 706.84,-162.62 706.84,-186.33 706.84,-186.33 706.84,-192.33 700.84,-198.33 694.84,-198.33"/>
<text xml:space="preserve" text-anchor="start" x="576.25" y="-179.53" font-family="Helvetica,sans-Serif" font-weight="bold" font-size="11.00" fill="#1e293b">libSQL / Turso</text>
<text xml:space="preserve" text-anchor="start" x="554.12" y="-170.43" font-family="Helvetica,sans-Serif" font-size="9.00" fill="#475569">circles · members · payments</text>
<text xml:space="preserve" text-anchor="start" x="535" y="-161.43" font-family="Helvetica,sans-Serif" font-size="9.00" fill="#475569">Local file store · Vercel uses TURSO_*</text>
</g>
<!-- verify&#45;&gt;db -->
<g id="edge7" class="edge">
<title>verify&#45;&gt;db</title>
<path fill="none" stroke="#94a3b8" stroke-width="1.4" d="M613,-284.16C613,-263.27 613,-232.77 613,-209.39"/>
<polygon fill="#94a3b8" stroke="#94a3b8" stroke-width="1.4" points="615.98,-209.5 613,-201 610.03,-209.5 615.98,-209.5"/>
<text xml:space="preserve" text-anchor="middle" x="661" y="-246.83" font-family="Helvetica,sans-Serif" font-size="10.00" fill="#475569">insert if all gates pass</text>
</g>
<!-- horizon -->
<g id="node7" class="node">
<title>horizon</title>
<path fill="#faf5ff" stroke="#9333ea" stroke-width="1.6" d="M460.34,-198.33C460.34,-198.33 323.66,-198.33 323.66,-198.33 317.66,-198.33 311.66,-192.33 311.66,-186.33 311.66,-186.33 311.66,-162.62 311.66,-162.62 311.66,-156.62 317.66,-150.62 323.66,-150.62 323.66,-150.62 460.34,-150.62 460.34,-150.62 466.34,-150.62 472.34,-156.62 472.34,-162.62 472.34,-162.62 472.34,-186.33 472.34,-186.33 472.34,-192.33 466.34,-198.33 460.34,-198.33"/>
<text xml:space="preserve" text-anchor="start" x="371.38" y="-179.53" font-family="Helvetica,sans-Serif" font-weight="bold" font-size="11.00" fill="#1e293b">Horizon</text>
<text xml:space="preserve" text-anchor="start" x="353" y="-170.43" font-family="Helvetica,sans-Serif" font-size="9.00" fill="#475569">transactions/{hash}</text>
<text xml:space="preserve" text-anchor="start" x="327.5" y="-161.43" font-family="Helvetica,sans-Serif" font-size="9.00" fill="#475569">operations · from · asset · memo</text>
</g>
<!-- verify&#45;&gt;horizon -->
<g id="edge6" class="edge">
<title>verify&#45;&gt;horizon</title>
<path fill="none" stroke="#94a3b8" stroke-width="2" d="M569.57,-284.24C545.38,-270.71 514.81,-253.3 488,-237.08 471.3,-226.99 453.23,-215.53 437.32,-205.26"/>
<polygon fill="#94a3b8" stroke="#94a3b8" stroke-width="2" points="439.02,-202.82 430.27,-200.69 435.78,-207.81 439.02,-202.82"/>
<text xml:space="preserve" text-anchor="middle" x="548.93" y="-246.83" font-family="Helvetica,sans-Serif" font-size="10.00" fill="#475569">fetchPayment</text>
</g>
<!-- horizon&#45;&gt;ledger -->
<g id="edge9" class="edge">
<title>horizon&#45;&gt;ledger</title>
<path fill="none" stroke="#94a3b8" stroke-width="1.4" d="M390.76,-149.92C390.04,-136.27 389.11,-118.65 388.26,-102.63"/>
<polygon fill="#94a3b8" stroke="#94a3b8" stroke-width="1.4" points="391.25,-102.83 387.83,-94.5 385.31,-103.14 391.25,-102.83"/>
</g>
</g>
</svg>
