<?xml version="1.0" encoding="UTF-8" standalone="no"?>
<!DOCTYPE svg PUBLIC "-//W3C//DTD SVG 1.1//EN"
 "http://www.w3.org/Graphics/SVG/1.1/DTD/svg11.dtd">
<!-- Generated by graphviz version 15.1.1 (20260805.0921)
 -->
<!-- Title: turn&#45;order Pages: 1 -->
<svg width="898pt" height="1215pt"
 viewBox="0.00 0.00 898.00 1215.00" xmlns="http://www.w3.org/2000/svg" xmlns:xlink="http://www.w3.org/1999/xlink">
<g id="graph0" class="graph" transform="scale(2.08333 2.08333) rotate(0) translate(50.4 533)">
<title>turn&#45;order</title>
<text xml:space="preserve" text-anchor="start" x="72.5" y="-467.25" font-family="Helvetica,sans-Serif" font-weight="bold" font-size="13.00" fill="#1e293b">Pasanaku digital &#45; Turn order</text>
<text xml:space="preserve" text-anchor="start" x="8" y="-458.05" font-family="Helvetica,sans-Serif" font-size="9.00" fill="#475569">Issue #4: members and their turn order, agreed manually or drawn by the app</text>
<!-- create -->
<g id="node1" class="node">
<title>create</title>
<path fill="#f0fdf4" stroke="#16a34a" stroke-width="1.6" d="M241.97,-452.6C241.97,-452.6 100.03,-452.6 100.03,-452.6 94.03,-452.6 88.03,-446.6 88.03,-440.6 88.03,-440.6 88.03,-416.88 88.03,-416.88 88.03,-410.88 94.03,-404.88 100.03,-404.88 100.03,-404.88 241.97,-404.88 241.97,-404.88 247.97,-404.88 253.97,-410.88 253.97,-416.88 253.97,-416.88 253.97,-440.6 253.97,-440.6 253.97,-446.6 247.97,-452.6 241.97,-452.6"/>
<text xml:space="preserve" text-anchor="start" x="124.88" y="-433.79" font-family="Helvetica,sans-Serif" font-weight="bold" font-size="11.00" fill="#1e293b">Organizer creates</text>
<text xml:space="preserve" text-anchor="start" x="115.5" y="-424.69" font-family="Helvetica,sans-Serif" font-size="9.00" fill="#475569">First member · turn_index 0</text>
<text xml:space="preserve" text-anchor="start" x="103.88" y="-415.69" font-family="Helvetica,sans-Serif" font-size="9.00" fill="#475569">Cookie pasanaku_admin_{code}</text>
</g>
<!-- join -->
<g id="node2" class="node">
<title>join</title>
<path fill="#eff6ff" stroke="#3b82f6" stroke-width="1.6" d="M223.22,-346.88C223.22,-346.88 118.78,-346.88 118.78,-346.88 112.78,-346.88 106.78,-340.88 106.78,-334.88 106.78,-334.88 106.78,-311.16 106.78,-311.16 106.78,-305.16 112.78,-299.16 118.78,-299.16 118.78,-299.16 223.22,-299.16 223.22,-299.16 229.22,-299.16 235.22,-305.16 235.22,-311.16 235.22,-311.16 235.22,-334.88 235.22,-334.88 235.22,-340.88 229.22,-346.88 223.22,-346.88"/>
<text xml:space="preserve" text-anchor="start" x="142.12" y="-328.07" font-family="Helvetica,sans-Serif" font-weight="bold" font-size="11.00" fill="#1e293b">Others join</text>
<text xml:space="preserve" text-anchor="start" x="122.62" y="-318.97" font-family="Helvetica,sans-Serif" font-size="9.00" fill="#475569">QR or link + Pollar login</text>
<text xml:space="preserve" text-anchor="start" x="138.38" y="-309.97" font-family="Helvetica,sans-Serif" font-size="9.00" fill="#475569">FIFO turn_index</text>
</g>
<!-- create&#45;&gt;join -->
<g id="edge1" class="edge">
<title>create&#45;&gt;join</title>
<path fill="none" stroke="#94a3b8" stroke-width="1.4" d="M171,-404.2C171,-390.55 171,-373.1 171,-357.98"/>
<polygon fill="#94a3b8" stroke="#94a3b8" stroke-width="1.4" points="173.98,-358.08 171,-349.58 168.03,-358.08 173.98,-358.08"/>
</g>
<!-- draw -->
<g id="node3" class="node">
<title>draw</title>
<path fill="#f0f9ff" stroke="#0284c7" stroke-width="1.6" d="M145.84,-241.16C145.84,-241.16 24.16,-241.16 24.16,-241.16 18.16,-241.16 12.16,-235.16 12.16,-229.16 12.16,-229.16 12.16,-214.44 12.16,-214.44 12.16,-208.44 18.16,-202.44 24.16,-202.44 24.16,-202.44 145.84,-202.44 145.84,-202.44 151.84,-202.44 157.84,-208.44 157.84,-214.44 157.84,-214.44 157.84,-229.16 157.84,-229.16 157.84,-235.16 151.84,-241.16 145.84,-241.16"/>
<text xml:space="preserve" text-anchor="start" x="46.75" y="-222.35" font-family="Helvetica,sans-Serif" font-weight="bold" font-size="11.00" fill="#1e293b">Sortear turnos</text>
<text xml:space="preserve" text-anchor="start" x="28" y="-213.25" font-family="Helvetica,sans-Serif" font-size="9.00" fill="#475569">Fisher&#45;Yates on member ids</text>
</g>
<!-- join&#45;&gt;draw -->
<g id="edge2" class="edge">
<title>join&#45;&gt;draw</title>
<path fill="none" stroke="#94a3b8" stroke-width="1.4" d="M150.62,-298.51C137.85,-283.77 121.35,-264.74 108.09,-249.44"/>
<polygon fill="#94a3b8" stroke="#94a3b8" stroke-width="1.4" points="110.69,-247.9 102.88,-243.43 106.2,-251.8 110.69,-247.9"/>
</g>
<!-- manual -->
<g id="node4" class="node">
<title>manual</title>
<path fill="#f0f9ff" stroke="#0284c7" stroke-width="1.6" d="M306.09,-241.16C306.09,-241.16 209.91,-241.16 209.91,-241.16 203.91,-241.16 197.91,-235.16 197.91,-229.16 197.91,-229.16 197.91,-214.44 197.91,-214.44 197.91,-208.44 203.91,-202.44 209.91,-202.44 209.91,-202.44 306.09,-202.44 306.09,-202.44 312.09,-202.44 318.09,-208.44 318.09,-214.44 318.09,-214.44 318.09,-229.16 318.09,-229.16 318.09,-235.16 312.09,-241.16 306.09,-241.16"/>
<text xml:space="preserve" text-anchor="start" x="226.12" y="-222.35" font-family="Helvetica,sans-Serif" font-weight="bold" font-size="11.00" fill="#1e293b">Subir / bajar</text>
<text xml:space="preserve" text-anchor="start" x="213.75" y="-213.25" font-family="Helvetica,sans-Serif" font-size="9.00" fill="#475569">Explicit address order</text>
</g>
<!-- join&#45;&gt;manual -->
<g id="edge3" class="edge">
<title>join&#45;&gt;manual</title>
<path fill="none" stroke="#94a3b8" stroke-width="1.4" d="M191.62,-298.51C204.54,-283.77 221.23,-264.74 234.64,-249.44"/>
<polygon fill="#94a3b8" stroke="#94a3b8" stroke-width="1.4" points="236.55,-251.77 239.92,-243.42 232.08,-247.85 236.55,-251.77"/>
</g>
<!-- lock -->
<g id="node5" class="node">
<title>lock</title>
<path fill="#fffbeb" stroke="#d97706" stroke-width="2.5" d="M232.97,-144.44C232.97,-144.44 109.03,-144.44 109.03,-144.44 103.03,-144.44 97.03,-138.44 97.03,-132.44 97.03,-132.44 97.03,-108.72 97.03,-108.72 97.03,-102.72 103.03,-96.72 109.03,-96.72 109.03,-96.72 232.97,-96.72 232.97,-96.72 238.97,-96.72 244.97,-102.72 244.97,-108.72 244.97,-108.72 244.97,-132.44 244.97,-132.44 244.97,-138.44 238.97,-144.44 232.97,-144.44"/>
<text xml:space="preserve" text-anchor="start" x="158.25" y="-125.63" font-family="Helvetica,sans-Serif" font-weight="bold" font-size="11.00" fill="#1e293b">Lock</text>
<text xml:space="preserve" text-anchor="start" x="122.25" y="-116.53" font-family="Helvetica,sans-Serif" font-size="9.00" fill="#475569">First confirmed payment</text>
<text xml:space="preserve" text-anchor="start" x="112.88" y="-107.53" font-family="Helvetica,sans-Serif" font-size="9.00" fill="#475569">join + shuffle + reorder reject</text>
</g>
<!-- draw&#45;&gt;lock -->
<g id="edge4" class="edge">
<title>draw&#45;&gt;lock</title>
<path fill="none" stroke="#94a3b8" stroke-width="1.4" d="M101.58,-201.67C113.39,-188.05 129.53,-169.43 143.27,-153.57"/>
<polygon fill="#94a3b8" stroke="#94a3b8" stroke-width="1.4" points="145.5,-155.54 148.82,-147.17 141.01,-151.64 145.5,-155.54"/>
</g>
<!-- manual&#45;&gt;lock -->
<g id="edge5" class="edge">
<title>manual&#45;&gt;lock</title>
<path fill="none" stroke="#94a3b8" stroke-width="1.4" d="M241.23,-201.67C229.17,-187.93 212.66,-169.09 198.67,-153.13"/>
<polygon fill="#94a3b8" stroke="#94a3b8" stroke-width="1.4" points="201.27,-151.59 193.43,-147.16 196.8,-155.51 201.27,-151.59"/>
</g>
<!-- run -->
<g id="node6" class="node">
<title>run</title>
<path fill="#ecfdf5" stroke="#059669" stroke-width="1.6" d="M255.84,-38.72C255.84,-38.72 86.16,-38.72 86.16,-38.72 80.16,-38.72 74.16,-32.72 74.16,-26.72 74.16,-26.72 74.16,-12 74.16,-12 74.16,-6 80.16,0 86.16,0 86.16,0 255.84,0 255.84,0 261.84,0 267.84,-6 267.84,-12 267.84,-12 267.84,-26.72 267.84,-26.72 267.84,-32.72 261.84,-38.72 255.84,-38.72"/>
<text xml:space="preserve" text-anchor="start" x="103.5" y="-19.91" font-family="Helvetica,sans-Serif" font-weight="bold" font-size="11.00" fill="#1e293b">Rounds follow turn_index</text>
<text xml:space="preserve" text-anchor="start" x="90" y="-10.81" font-family="Helvetica,sans-Serif" font-size="9.00" fill="#475569">Recipient = members[current_round &#45; 1]</text>
</g>
<!-- lock&#45;&gt;run -->
<g id="edge6" class="edge">
<title>lock&#45;&gt;run</title>
<path fill="none" stroke="#059669" stroke-width="1.4" d="M171,-95.56C171,-81.85 171,-64.55 171,-50"/>
<polygon fill="#059669" stroke="#059669" stroke-width="1.4" points="173.98,-50.13 171,-41.63 168.03,-50.13 173.98,-50.13"/>
</g>
</g>
</svg>
